<?xml version="1.0" encoding="iso-8859-1"?>
<!-- Generator: Adobe Illustrator 19.0.0, SVG Export Plug-In . SVG Version: 6.00 Build 0)  -->
<svg version="1.1" id="Layer_1" xmlns="http://www.w3.org/2000/svg" xmlns:xlink="http://www.w3.org/1999/xlink" x="0px" y="0px"
	 viewBox="0 0 512 512" style="enable-background:new 0 0 512 512;" xml:space="preserve">
<path style="fill:#2197D8;" d="M398.339,71.921L398.339,71.921c-78.611-78.611-206.066-78.611-284.677,0l0,0
	c-78.611,78.611-78.611,206.066,0,284.677L256,498.937l142.338-142.338C476.95,277.987,476.95,150.533,398.339,71.921z"/>
<path style="fill:#2BA5F7;" d="M136.755,333.505c-31.852-31.852-49.394-74.201-49.394-119.247s17.541-87.394,49.394-119.245
	c31.852-31.852,74.201-49.394,119.247-49.394c45.044,0,87.394,17.541,119.245,49.393s49.394,74.201,49.394,119.245
	c0,45.046-17.541,87.395-49.394,119.245L256,452.749L136.755,333.505z"/>
<rect x="299.106" y="111.715" style="fill:#CCCCCC;" width="32.658" height="68.814"/>
<path style="fill:#333333;" d="M256,512c-3.464,0-6.786-1.376-9.237-3.826l-142.34-142.338c-83.578-83.579-83.578-219.572,0-303.151
	c83.58-83.579,219.574-83.579,303.152,0l0,0c83.578,83.579,83.578,219.572,0,303.151L265.237,508.173
	C262.787,510.624,259.466,512,256,512z M256,26.025c-50.279,0-97.549,19.58-133.102,55.133S67.766,163.981,67.766,214.26
	c0,50.28,19.579,97.549,55.132,133.101L256,480.463l133.101-133.101c73.393-73.393,73.393-192.81,0-266.203
	C353.549,45.606,306.279,26.025,256,26.025z"/>
<polygon style="fill:#E6E6E6;" points="340.196,169.797 340.196,319.017 171.799,319.017 171.799,169.797 256.004,130.202 "/>
<path style="fill:#CCCCCC;" d="M356.368,277.502c-4.637,7.511-10.059,14.487-16.172,20.81c-7.746,8.047-16.59,15.023-26.27,20.705
	H189.33c-6.218-3.645-12.083-7.838-17.531-12.501V199.842c12.319,54.917,61.384,95.949,120.011,95.949
	c17.191,0,33.533-3.527,48.386-9.889C345.813,283.498,351.208,280.69,356.368,277.502z"/>
<path style="fill:#333333;" d="M371.028,198.319c-1.89,0-3.811-0.413-5.63-1.283L256,144.684l-109.398,52.352
	c-6.507,3.114-14.308,0.363-17.422-6.145c-3.114-6.508-0.363-14.308,6.145-17.422l115.038-55.051c3.565-1.706,7.712-1.706,11.277,0
	l115.036,55.051c6.508,3.114,9.259,10.914,6.145,17.422C380.576,195.581,375.899,198.319,371.028,198.319z"/>
<rect x="232.406" y="237.135" style="fill:#CCCCCC;" width="47.197" height="81.89"/>
<g>
	<path style="fill:#333333;" d="M340.2,201.147c-7.213,0-13.063,5.848-13.063,13.063v91.749h-34.474v-68.827
		c0-7.215-5.85-13.063-13.063-13.063h-47.201c-7.213,0-13.063,5.848-13.063,13.063v68.827h-34.474V214.21
		c0-7.215-5.85-13.063-13.063-13.063s-13.063,5.848-13.063,13.063v104.812c0,7.215,5.85,13.063,13.063,13.063h60.6H279.6h60.6
		c7.213,0,13.063-5.848,13.063-13.063V214.21C353.263,206.995,347.415,201.147,340.2,201.147z M245.464,305.959v-55.764h21.075
		v55.764H245.464z"/>
	<path style="fill:#333333;" d="M331.771,142.955c-7.213,0-13.063-5.848-13.063-13.063v-5.108h-19.764
		c-7.213,0-13.063-5.848-13.063-13.063s5.85-13.063,13.063-13.063h32.828c7.213,0,13.063,5.848,13.063,13.063v18.171
		C344.834,137.106,338.985,142.955,331.771,142.955z"/>
</g>
<g>
</g>
<g>
</g>
<g>
</g>
<g>
</g>
<g>
</g>
<g>
</g>
<g>
</g>
<g>
</g>
<g>
</g>
<g>
</g>
<g>
</g>
<g>
</g>
<g>
</g>
<g>
</g>
<g>
</g>
</svg>
