<?xml version="1.0" encoding="iso-8859-1"?>
<!-- Generator: Adobe Illustrator 19.0.0, SVG Export Plug-In . SVG Version: 6.00 Build 0)  -->
<svg xmlns="http://www.w3.org/2000/svg" xmlns:xlink="http://www.w3.org/1999/xlink" version="1.1" id="Capa_1" x="0px" y="0px" viewBox="0 0 512.001 512.001" style="enable-background:new 0 0 512.001 512.001;" xml:space="preserve">
<path style="fill:yellow;" d="M414.502,187.042C414.5,187.039,504.5,37.5,504.5,37.5c-13.589,0-25.58,0.821-36.373,2.258  l-129.958,149.47l130.044,115.519c10.771-1.429,22.734-2.246,36.287-2.246L414.502,187.042z"/>
<path style="fill:yellow;" d="M468.127,39.758C386.185,50.662,374.161,97.5,271,97.5c-116.75,0-116.75-60-233.5-60L17.5,170  l20,132.5c116.75,0,116.75,60,233.5,60c103.198,0,115.193-46.871,197.213-57.754l-90.044-115.519L468.127,39.758z"/>
<rect x="7.5" y="7.5" style="fill:black;" width="30" height="497"/>
<path d="M423.583,186.492l87.343-145.125c1.395-2.316,1.434-5.204,0.104-7.558c-1.331-2.354-3.825-3.81-6.529-3.81  c-60.189,0-90.686,15.673-120.178,30.829C355.132,75.831,327.561,90,271,90s-84.132-14.169-113.322-29.171  C129.439,46.317,100.262,31.342,45,30.094V7.5C45,3.357,41.643,0,37.5,0h-30C3.357,0,0,3.357,0,7.5v497c0,4.143,3.357,7.5,7.5,7.5  h30c4.143,0,7.5-3.357,7.5-7.5V310.096c51.545,1.201,77.956,14.753,105.822,29.075C180.314,354.327,210.811,370,271,370  s90.686-15.673,120.178-30.829C420.368,324.169,447.939,310,504.5,310c2.866,0,5.481-1.633,6.739-4.208  c1.258-2.575,0.938-5.643-0.824-7.903L423.583,186.492z M30,497H15V15h15V497z M384.322,325.829  C355.132,340.831,327.561,355,271,355s-84.132-14.169-113.322-29.171C129.439,311.317,100.262,296.342,45,295.094V45.096  c51.545,1.201,77.956,14.753,105.822,29.075C180.314,89.327,210.811,105,271,105s90.686-15.673,120.178-30.829  c26.78-13.763,52.196-26.825,99.885-28.889l-82.988,137.89c-1.601,2.659-1.397,6.03,0.511,8.479l80.83,103.696  C438.997,297.729,411.244,311.994,384.322,325.829z"/>
<g>
</g>
<g>
</g>
<g>
</g>
<g>
</g>
<g>
</g>
<g>
</g>
<g>
</g>
<g>
</g>
<g>
</g>
<g>
</g>
<g>
</g>
<g>
</g>
<g>
</g>
<g>
</g>
<g>
</g>
</svg>
