<svg xmlns="http://www.w3.org/2000/svg" viewBox="0 0 64 64"><g id="_06-Play" data-name="06-Play"><polygon points="21 38 21 63 17 59 17 38 21 38" style="fill:#15507a"/><polygon points="21 1 21 26 17 26 17 5 21 1" style="fill:#15507a"/><polygon points="63 32 21 63 21 38 25 38 25 46 29 48 47 32 29 16 25 18 25 26 21 26 21 1 63 32" style="fill:#48befd"/><polygon points="25 3.952 21 1 21 26 25 26 25 18 25 3.952" style="fill:#2a84c9"/><path d="M47,32,29,48l-4-2V38H21V63L63,32,49.894,38.553A2,2,0,0,1,47,36.764Z" style="fill:#2a84c9"/><rect x="21" y="38" width="4" height="4" style="fill:#1c69a1"/><rect x="1" y="26" width="4" height="12" style="fill:#fd9c04"/><polygon points="29 38 29 48 25 46 25 38 29 38" style="fill:#fa5f07"/><polygon points="29 16 29 26 25 26 25 18 29 16" style="fill:#fab503"/><polygon points="47 32 29 48 29 38 25 38 21 38 17 38 5 38 5 26 17 26 21 26 25 26 29 26 29 16 47 32" style="fill:#fab503"/><path d="M29,16V26H12a2,2,0,0,0,0,4H36l6.745,5.782L47,32Z" style="fill:#ffdb02"/><rect x="1" y="30" width="4" height="8" style="fill:#ed9204"/><path d="M25,38v8l2,1V42a2,2,0,0,1,2-2V38Z" style="fill:#d65106"/><path d="M27,22V17l-2,1v8h4V24A2,2,0,0,1,27,22Z" style="fill:#ed9204"/><line x1="21" y1="21" x2="21" y2="23" style="fill:none;stroke:#000;stroke-linejoin:round;stroke-width:2px"/><polyline points="31 55.619 63 32 21 1 21 19" style="fill:none;stroke:#000;stroke-linejoin:round;stroke-width:2px"/><polyline points="21 41 21 63 29.129 57" style="fill:none;stroke:#000;stroke-linejoin:round;stroke-width:2px"/><polyline points="17 38 17 59 21 63" style="fill:none;stroke:#000;stroke-linejoin:round;stroke-width:2px"/><polyline points="17 26 17 5 21 1" style="fill:none;stroke:#000;stroke-linejoin:round;stroke-width:2px"/><polyline points="8 26 5 26 5 38 29 38 29 48 47 32 29 16 29 26 10 26" style="fill:none;stroke:#000;stroke-linejoin:round;stroke-width:2px"/><polyline points="29 16 25 18 25 26" style="fill:none;stroke:#000;stroke-linejoin:round;stroke-width:2px"/><polyline points="25 38 25 46 29 48" style="fill:none;stroke:#000;stroke-linejoin:round;stroke-width:2px"/><polyline points="5 26 1 26 1 38 5 38" style="fill:none;stroke:#000;stroke-linejoin:round;stroke-width:2px"/></g></svg>