<svg xmlns="http://www.w3.org/2000/svg" width="128" height="128" viewBox="0 0 128 128">
  <title>WALL</title>
  <g>
    <g>
      <rect x="1.75" y="1.75" width="124.5" height="124.5" fill="#ff7f40"/>
      <path d="M126.25,26.313v-8H109.375V1.75h-8V18.313H68V1.75H60V18.313H26.625V1.75h-8V18.313H1.75v8H39.812V46.1H1.75v8H18.625V73.9H1.75v8H39.812v19.792H1.75v8H18.625v16.556h8V109.688H60v16.556h8V109.688h33.375v16.556h8V109.688H126.25v-8H88.187V81.9H126.25v-8H109.375V54.1H126.25v-8H88.187V26.313ZM26.625,54.1H60V73.9H26.625Zm53.562,47.584H47.812V81.9H80.187ZM101.375,73.9H68V54.1h33.375ZM80.187,46.1H47.812V26.313H80.187Z" fill="#ffdf40"/>
    </g>
    <g>
      <path d="M126.25,0H1.75A1.75,1.75,0,0,0,0,1.75v124.5A1.75,1.75,0,0,0,1.75,128h124.5a1.75,1.75,0,0,0,1.75-1.75V1.75A1.75,1.75,0,0,0,126.25,0ZM124.5,99.938H89.937V83.646H124.5Zm0-27.792H111.125V55.854H124.5Zm0-55.583H111.125V3.5H124.5ZM69.75,3.5H99.625V16.563H69.75Zm-41.375,0H58.25V16.563H28.375Zm-3.5,0V18.313a1.75,1.75,0,0,0,1.75,1.75H60a1.75,1.75,0,0,0,1.75-1.75V3.5h4.5V18.313A1.75,1.75,0,0,0,68,20.063h33.375a1.75,1.75,0,0,0,1.75-1.75V3.5h4.5V18.313a1.75,1.75,0,0,0,1.75,1.75H124.5v4.5h-4.125a1.75,1.75,0,0,0,0,3.5H124.5V44.354H89.937V28.063H95.75a1.75,1.75,0,0,0,0-3.5H88.187a1.75,1.75,0,0,0-1.75,1.75V46.1a1.751,1.751,0,0,0,1.75,1.75H124.5v4.5H109.375a1.75,1.75,0,0,0-1.75,1.75V73.9a1.75,1.75,0,0,0,1.75,1.75H124.5v4.5H88.187a1.751,1.751,0,0,0-1.75,1.75v19.792a1.751,1.751,0,0,0,1.75,1.75H124.5v4.5H109.375a1.749,1.749,0,0,0-1.75,1.75v14.806h-4.5V109.688a1.749,1.749,0,0,0-1.75-1.75H68a1.749,1.749,0,0,0-1.75,1.75v14.806h-4.5V109.688a1.749,1.749,0,0,0-1.75-1.75H26.625a1.749,1.749,0,0,0-1.75,1.75v14.806h-4.5V109.688a1.749,1.749,0,0,0-1.75-1.75H3.5v-4.5H26.625a1.75,1.75,0,0,0,0-3.5H3.5V83.646H38.062v18.042a1.75,1.75,0,0,0,3.5,0V81.9a1.75,1.75,0,0,0-1.75-1.75H3.5v-4.5H18.625a1.75,1.75,0,0,0,1.75-1.75V54.1a1.75,1.75,0,0,0-1.75-1.75H3.5v-4.5H39.812a1.75,1.75,0,0,0,1.75-1.75V26.313a1.749,1.749,0,0,0-1.75-1.75H3.5v-4.5H18.625a1.75,1.75,0,0,0,1.75-1.75V3.5Zm33.375,121H28.375V111.438H58.25Zm41.375,0H69.75V111.438H99.625ZM3.5,28.063H38.062V44.354H3.5Zm0,27.791H16.875V72.146H3.5ZM16.875,3.5V16.563H3.5V3.5ZM3.5,111.438H16.875V124.5H3.5ZM111.125,124.5V111.438H124.5V124.5Z"/>
      <path d="M61.75,73.9V54.1A1.75,1.75,0,0,0,60,52.354H26.625a1.75,1.75,0,0,0-1.75,1.75V73.9a1.75,1.75,0,0,0,1.75,1.75H60A1.75,1.75,0,0,0,61.75,73.9Zm-3.5-1.75H28.375V55.854H58.25Z"/>
      <path d="M105.5,28.063h5.125a1.75,1.75,0,0,0,0-3.5H105.5a1.75,1.75,0,0,0,0,3.5Z"/>
      <path d="M66.25,54.1V73.9A1.75,1.75,0,0,0,68,75.646h33.375a1.75,1.75,0,0,0,1.75-1.75V54.1a1.75,1.75,0,0,0-1.75-1.75H68A1.75,1.75,0,0,0,66.25,54.1Zm3.5,1.75H99.625V72.146H69.75Z"/>
      <path d="M80.187,80.146H47.812a1.751,1.751,0,0,0-1.75,1.75v19.792a1.751,1.751,0,0,0,1.75,1.75H80.187a1.75,1.75,0,0,0,1.75-1.75V81.9A1.75,1.75,0,0,0,80.187,80.146Zm-1.75,19.792H49.562V83.646H78.437Z"/>
      <path d="M47.812,47.854H80.187a1.75,1.75,0,0,0,1.75-1.75V26.313a1.749,1.749,0,0,0-1.75-1.75H47.812a1.75,1.75,0,0,0-1.75,1.75V46.1A1.751,1.751,0,0,0,47.812,47.854Zm1.75-19.791H78.437V44.354H49.562Z"/>
    </g>
  </g>
</svg>
