<svg xmlns="http://www.w3.org/2000/svg" viewBox="0 0 52 52" id="wall"><path fill="black" d="M49 2H3c-.55 0-1 .45-1 1v46c0 .55.45 1 1 1h46c.55 0 1-.45 1-1V3c0-.55-.45-1-1-1zm-1 46H4V4h44v44z"></path><path fill="#ff4500" d="M14 27h23v10H14zM14 4h23v9H14zM39 4h9v9h-9zM4 4h8v9H4z"></path><path fill="#ff4500" d="M4 27h8v10H4zM39 27h9v10h-9zM27 15h21v10H27zM27 39h21v9H27zM4 39h21v9H4zM4 15h21v10H4z"></path><path fill="black" d="M50 14c0 .55-.45 1-1 1H3c-.55 0-1-.45-1-1s.45-1 1-1h46c.55 0 1 .45 1 1zM50 26c0 .55-.45 1-1 1H3c-.55 0-1-.45-1-1s.45-1 1-1h46c.55 0 1 .45 1 1zM50 38c0 .55-.45 1-1 1H3c-.55 0-1-.45-1-1s.45-1 1-1h46c.55 0 1 .45 1 1z"></path><path fill="black" d="M14 3.56V14c0 .55-.45 1-1 1s-1-.45-1-1V3.56c0-.55.45-1 1-1s1 .45 1 1zM39 3.56V14c0 .55-.45 1-1 1s-1-.45-1-1V3.56c0-.55.45-1 1-1s1 .45 1 1zM14 26.78v10.44c0 .55-.45 1-1 1s-1-.45-1-1V26.78c0-.55.45-1 1-1s1 .45 1 1zM39 26.78v10.44c0 .55-.45 1-1 1s-1-.45-1-1V26.78c0-.55.45-1 1-1s1 .45 1 1zM27 14.78v10.44c0 .55-.45 1-1 1s-1-.45-1-1V14.78c0-.55.45-1 1-1s1 .45 1 1zM27 38.36V48.8c0 .56-.45 1-1 1s-1-.44-1-1V38.36c0-.55.45-1 1-1s1 .45 1 1z"></path></svg>