<svg id="icon" xmlns="http://www.w3.org/2000/svg" viewBox="0 0 512 512"><rect x="23.571" y="66.461" width="464.859" height="182.56" style="fill:#ff7b69"/><path d="M488.43,249.02H23.571V400.362H488.43V332.3h0Z" style="fill:#ff7b69"/><rect x="23.571" y="66.461" width="77.476" height="91.28" style="fill:#d85656"/><path d="M59.65,204.649a147.628,147.628,0,0,1,20.574,5.061,125.853,125.853,0,0,0,65.835,2.981,321.918,321.918,0,0,1,82.517-7.285,127.584,127.584,0,0,1,100.5,56.038c15.815,28.691,38.738,47.892,72.755,48.163,45.972-4.07,86.621,29.98,86.6,76.889V431.58H23.571V235.259A30.975,30.975,0,0,1,59.65,204.649Z" style="fill:#53737f"/><path d="M411.542,332.016h-22.8A77.225,77.225,0,0,1,322.41,294.01c-22.288-37.095-49.589-64.952-93.835-66.195a321.824,321.824,0,0,0-82.516,7.285,125.853,125.853,0,0,1-65.835-2.982c-7.307-2.363-17.144-5.432-23.484-6.516-18.881-3.225-33.169,20.186-33.169,39.341V431.58H488.43V408.9A76.888,76.888,0,0,0,411.542,332.016Z" style="fill:#7f90a0"/><path d="M225.151,208.268,170.6,326.39a9.8,9.8,0,0,0,8.9,13.91c27.195-.019,81.921.013,109.109,0a9.8,9.8,0,0,0,8.9-13.91L242.946,208.268A9.8,9.8,0,0,0,225.151,208.268Z" style="fill:#e6e6e6"/><path d="M234.048,377.8a5.821,5.821,0,0,1-5.82-5.821v-59.16a5.821,5.821,0,0,1,11.641,0v59.16A5.822,5.822,0,0,1,234.048,377.8Z" style="fill:#53737f"/><path d="M234.048,445.538a15.55,15.55,0,0,1-15.55-15.55V379.546a15.55,15.55,0,1,1,31.1,0v50.442A15.55,15.55,0,0,1,234.048,445.538Z" style="fill:#d85656"/><path d="M87.034,375.315a24.114,24.114,0,0,1-25.1-24.026V340.8a5.821,5.821,0,0,1,11.641,0V351.29a12.4,12.4,0,0,0,12.385,12.385,12.533,12.533,0,0,0,13.044-9.215l2.032-7.676a24.05,24.05,0,0,1,23.227-17.877,12.446,12.446,0,0,0,12.26-10.633L138.708,303a5.82,5.82,0,0,1,11.524,1.646l-2.182,15.275a24.145,24.145,0,0,1-23.784,20.628,12.4,12.4,0,0,0-11.973,9.215l-2.032,7.677A24.05,24.05,0,0,1,87.034,375.315Z" style="fill:#333"/><path d="M67.758,318.261a5.821,5.821,0,0,1-5.821-5.821v-3.148c.2-7.676,11.447-7.676,11.641,0v3.148A5.821,5.821,0,0,1,67.758,318.261Z" style="fill:#333"/><path d="M390.608,412a24.244,24.244,0,0,1-23.269-17.151l-2.283-7.364a12.722,12.722,0,0,0-8.328-8.368l-10.3-3.245a24.22,24.22,0,0,1-16.748-19.469l-1.954-12.478c-.987-7.6,10.109-9.364,11.5-1.8l1.954,12.48a12.641,12.641,0,0,0,8.744,10.166l10.3,3.245a24.361,24.361,0,0,1,15.947,16.026l2.284,7.363c4.447,13.8,24.666,10.742,24.871-3.763V369.8c.178-7.666,11.453-7.68,11.64,0v17.848A24.388,24.388,0,0,1,390.608,412Z" style="fill:#333"/><path d="M488.43,60.641c-142.013,0-322.851,0-464.86,0a5.82,5.82,0,0,0-5.82,5.82c.369,41.069-.508,124.3.2,164.945a37.059,37.059,0,0,0-.2,3.852c.221,7.684,11.43,7.678,11.64,0a25.234,25.234,0,0,1,8.981-19.323c22.121-18.822,49.842,16.254,108.942,2.439a317.726,317.726,0,0,1,51.538-6.994,5.82,5.82,0,1,0-.614-11.623q-6.949.368-13.892,1.035V163.561H327.657V243.2h-5.492a132.463,132.463,0,0,0-49.448-34.241,5.821,5.821,0,0,0-4.3,10.819c26.657,10.406,48.106,30.129,62.081,54.8,16.927,28.768,48.466,43.144,81.041,40.853A71.149,71.149,0,0,1,482.61,386.5v39.264H277.943a5.821,5.821,0,0,0,0,11.641H488.43a5.821,5.821,0,0,0,5.82-5.821c0-29.783,0-150.51,0-182.559-.03-45.427.022-137.122,0-182.559A5.82,5.82,0,0,0,488.43,60.641ZM29.39,72.281H95.226V151.92H29.39ZM172.7,202.12c-9.387,1.234-18.712,2.859-27.9,4.887a120.008,120.008,0,0,1-62.79-2.835c-18.35-5.785-37.031-10.579-52.624,4.181V163.561H172.7Zm77.476-50.2H106.867V72.281H250.18Zm11.641,0V72.281H405.133V151.92ZM482.61,344.249c-16.493-27.918-47.124-42.777-80.776-40.461a71.773,71.773,0,0,1-61.323-35.16c-2.791-4.668-5.755-9.354-8.951-13.788H482.61Zm0-101.049H339.3V163.561H482.61Zm0-91.28H416.774V72.281H482.61Z" style="fill:#333"/><path d="M383.927,98.424c6.968-.105,7.948-10.09,1.134-11.524C376.732,85.575,375.511,98.087,383.927,98.424Z" style="fill:#333"/><path d="M221.41,94.831c3.094,7.017,13.518,2.692,10.738-4.453C229.066,83.361,218.627,87.667,221.41,94.831Z" style="fill:#333"/><path d="M221.41,118.781c3.081,7.021,13.523,2.707,10.738-4.452C229.045,107.33,218.636,111.627,221.41,118.781Z" style="fill:#333"/><path d="M383.927,122.374c6.939-.031,7.937-10.13,1.134-11.524C376.721,109.541,375.517,122.05,383.927,122.374Z" style="fill:#333"/><path d="M353.849,94.831c3.117,7.013,13.519,2.689,10.754-4.453C361.491,83.36,351.082,87.662,353.849,94.831Z" style="fill:#333"/><path d="M364.284,179.064c-6.489-4.108-12.732,5.259-6.461,9.676C364.314,192.828,370.55,183.482,364.284,179.064Z" style="fill:#333"/><path d="M383.869,178.191c-6.816,1.478-5.818,11.437,1.149,11.524C393.429,189.38,392.2,176.883,383.869,178.191Z" style="fill:#333"/><path d="M455.617,278.183c3.1,7,13.513,2.7,10.752-4.452C463.259,266.713,452.846,271.016,455.617,278.183Z" style="fill:#333"/><path d="M366.422,206.376c-3.091-7.027-13.516-2.7-10.738,4.452C358.777,217.843,369.2,213.525,366.422,206.376Z" style="fill:#333"/><path d="M23.57,437.4H188.21a5.821,5.821,0,0,0,0-11.641H29.39V267.936c-.18-7.636-11.439-7.709-11.64,0V431.579A5.821,5.821,0,0,0,23.57,437.4Z" style="fill:#333"/><path d="M288.6,334.48H259.169a5.82,5.82,0,0,0,0,11.64H288.6c11.112.266,19.1-12.184,14.181-22.17L248.229,205.827c-5.332-12-23.016-12.038-28.363,0l-54.552,118.12a15.62,15.62,0,0,0,14.179,22.171h48.735V359a21.394,21.394,0,0,0-15.55,20.545v50.441a21.37,21.37,0,1,0,42.74,0V379.547A21.393,21.393,0,0,0,239.869,359V312.817c-.194-7.672-11.446-7.678-11.641,0V334.48H179.493a3.945,3.945,0,0,1-3.612-5.65l54.552-118.12a3.96,3.96,0,0,1,7.229,0l54.555,118.123A3.951,3.951,0,0,1,288.6,334.48Zm-54.555,35.336a9.742,9.742,0,0,1,9.73,9.731v50.441a9.73,9.73,0,1,1-19.459,0V379.547A9.741,9.741,0,0,1,234.048,369.816Z" style="fill:#333"/></svg>