<?xml version="1.0" encoding="UTF-8"?>
<!DOCTYPE svg PUBLIC "-//W3C//DTD SVG 1.1//EN" "http://www.w3.org/Graphics/SVG/1.1/DTD/svg11.dtd">
<!-- Creator: CorelDRAW -->
<svg xmlns="http://www.w3.org/2000/svg" xml:space="preserve" width="6.82666in" height="6.82666in" style="shape-rendering:geometricPrecision; text-rendering:geometricPrecision; image-rendering:optimizeQuality; fill-rule:evenodd; clip-rule:evenodd"
viewBox="0 0 6.82666 6.82666"
 xmlns:xlink="http://www.w3.org/1999/xlink">
 <defs>
  <style type="text/css">
   <![CDATA[
    .fil0 {fill:#424242}
    .fil2 {fill:#FFFFFE}
    .fil1 {fill:#FFFFFE;fill-rule:nonzero}
   ]]>
  </style>
 </defs>
 <rect class="fil0" width="6.82666" height="6.82666"/>
 <g id="Layer_x0020_1">
  <metadata id="CorelCorpID_0Corel-Layer"/>
  <path class="fil1" d="M1.93254 2.93243l2.96157 0c0.0933858,0 0.16263,0.0400591 0.215764,0.10185 0.0443425,0.0515709 0.0742283,0.116941 0.097063,0.18378l0.754146 2.20744c0.00835039,0.0244488 0.0122402,0.0485748 0.0122402,0.0720709 0,0.0642047 -0.0277402,0.122303 -0.0715591,0.168972 -0.0380512,0.0405276 -0.0893228,0.0725984 -0.143866,0.0912323 -0.0356811,0.012189 -0.0731142,0.0189528 -0.109646,0.0189528l-4.46986 0c-0.0365315,0 -0.0739646,-0.00676378 -0.109646,-0.0189528 -0.0545433,-0.0186339 -0.105823,-0.0507047 -0.143866,-0.0912362 -0.043815,-0.0466732 -0.0715591,-0.104772 -0.0715591,-0.168972 0,-0.0234961 0.00388976,-0.0476181 0.0122402,-0.0720669l0.754146 -2.20744c0.0228346,-0.0668268 0.0527205,-0.132197 0.0970591,-0.183768 0.0531339,-0.0617953 0.122374,-0.101862 0.215768,-0.101862zm1.26418 2.22814l0.260217 0 -0.352327 -0.893492 0.352327 -0.718476 -0.253311 0 -0.331598 0.702358 0 -0.702358 -0.253311 0 0 1.61197 0.253311 0 0 -0.495106 0.0782913 -0.147378 0.246402 0.642484zm0.739201 -0.667815l0.115142 0 0 0.297063c0,0.0379961 -0.00537402,0.0687008 -0.0161181,0.0917283 -0.010748,0.0230315 -0.0257165,0.0395315 -0.0452913,0.0498937 -0.0195748,0.0103622 -0.0429843,0.0153543 -0.0698504,0.0149685 -0.0268661,0.000385827 -0.0502756,-0.0046063 -0.0698504,-0.0149685 -0.0195787,-0.0103622 -0.0345433,-0.0268622 -0.0452953,-0.0498937 -0.0107402,-0.0230276 -0.0161142,-0.0537323 -0.0161142,-0.0917283l0 -0.870461c0.00038189,-0.057185 0.0122835,-0.0978701 0.0353071,-0.122819 0.0234173,-0.0245591 0.0552677,-0.0368425 0.0959528,-0.0360748 0.0406811,-0.000767717 0.0725394,0.0115157 0.0959488,0.0360748 0.0230276,0.0249488 0.0349291,0.0656339 0.035311,0.122819l0 0.172713 0.239492 0 0 -0.156594c0,-0.0863543 -0.0142008,-0.159657 -0.0426024,-0.219921 -0.0283976,-0.060252 -0.070622,-0.105925 -0.126657,-0.13778 -0.0560354,-0.0314685 -0.1255,-0.0472087 -0.208402,-0.0475906 -0.0829016,0.00038189 -0.152366,0.016122 -0.208402,0.0475906 -0.0560354,0.0318543 -0.0982559,0.0775276 -0.126654,0.13778 -0.0284055,0.0602638 -0.0426063,0.133567 -0.0426063,0.219921l0 0.838224c0,0.0863543 0.0142008,0.159276 0.0426063,0.219531 0.0283976,0.0602559 0.0706181,0.106311 0.126654,0.138169 0.0560354,0.0314685 0.1255,0.0472126 0.208402,0.0475906 0.0829016,-0.000377953 0.152366,-0.016122 0.208402,-0.0475906 0.0560354,-0.0318583 0.0982598,-0.0779134 0.126657,-0.138169 0.0284016,-0.0602559 0.0426024,-0.133177 0.0426024,-0.219531l0 -0.511224 -0.354634 0 0 0.23028z"/>
  <path class="fil2" d="M4.06737 2.55767c-0.173965,0.173961 -0.407976,0.270921 -0.654039,0.270921 -0.246063,0 -0.480075,-0.0969606 -0.654039,-0.270921 -0.173961,-0.173965 -0.270925,-0.407976 -0.270925,-0.654043 0,-0.246063 0.0969606,-0.480075 0.270925,-0.654039 0.173965,-0.173965 0.407976,-0.270921 0.654039,-0.270921 0.246063,0 0.480075,0.0969567 0.654039,0.270921 0.173965,0.173965 0.270925,0.407976 0.270925,0.654039 0,0.246067 -0.0969646,0.480079 -0.270925,0.654043zm-0.654039 -0.124165c0.141102,0 0.274925,-0.0554291 0.374689,-0.155193 0.0997598,-0.099752 0.155185,-0.233587 0.155185,-0.374685 0,-0.141102 -0.0554252,-0.274925 -0.155189,-0.374685 -0.0997598,-0.0997598 -0.233583,-0.155189 -0.374685,-0.155189 -0.141102,0 -0.274925,0.0554291 -0.374685,0.155189 -0.0997638,0.0997598 -0.155189,0.233583 -0.155189,0.374685 0,0.141098 0.0554252,0.274933 0.155185,0.374685 0.0997638,0.0997638 0.233587,0.155193 0.374689,0.155193z"/>
  <path class="fil1" d="M4.23032 3.13724l-1.63398 0c-0.0565512,0 -0.102402,-0.0458504 -0.102402,-0.102402l0 -0.377075c0,-0.0565512 0.0458504,-0.102402 0.102402,-0.102402l1.63398 0c0.0565512,0 0.102402,0.0458504 0.102402,0.102402l0 0.377075c0,0.0565512 -0.0458504,0.102402 -0.102402,0.102402z"/>
 </g>
</svg>
