<?xml version="1.0" encoding="UTF-8"?>
<!DOCTYPE svg PUBLIC "-//W3C//DTD SVG 1.1//EN" "http://www.w3.org/Graphics/SVG/1.1/DTD/svg11.dtd">
<!-- Creator: CorelDRAW -->
<svg xmlns="http://www.w3.org/2000/svg" xml:space="preserve" width="300px" height="300px" style="shape-rendering:geometricPrecision; text-rendering:geometricPrecision; image-rendering:optimizeQuality; fill-rule:evenodd; clip-rule:evenodd"
viewBox="0 0 2048 2048"
 xmlns:xlink="http://www.w3.org/1999/xlink">
 <defs>
  <style type="text/css">
   <![CDATA[
    .fil3 {fill:none}
    .fil0 {fill:#9D9D9D}
    .fil1 {fill:#2D2D2D;fill-rule:nonzero}
    .fil2 {fill:#3A3A3A;fill-rule:nonzero}
   ]]>
  </style>
 </defs>
 <g id="Layer_x0020_1">
  <metadata id="CorelCorpID_0Corel-Layer"/>
  <path class="fil0" d="M1220.21 767.3c-52.1894,52.1882 -122.393,81.2764 -196.212,81.2764 -73.819,0 -144.023,-29.0882 -196.212,-81.2764 -52.1882,-52.1894 -81.2776,-122.393 -81.2776,-196.213 0,-73.819 29.0882,-144.023 81.2776,-196.212 52.1894,-52.1894 122.393,-81.2764 196.212,-81.2764 73.819,0 144.023,29.087 196.212,81.2764 52.1894,52.1894 81.2776,122.393 81.2776,196.212 0,73.8201 -29.0894,144.024 -81.2776,196.213zm-196.212 -37.2496c42.3307,0 82.4776,-16.6288 112.407,-46.5579 29.928,-29.9256 46.5555,-70.076 46.5555,-112.406 0,-42.3307 -16.6276,-82.4776 -46.5567,-112.406 -29.928,-29.928 -70.0749,-46.5567 -112.406,-46.5567 -42.3307,0 -82.4776,16.6288 -112.406,46.5567 -29.9292,29.928 -46.5567,70.0749 -46.5567,112.406 0,42.3296 16.6276,82.48 46.5555,112.406 29.9292,29.9292 70.076,46.5579 112.407,46.5579z"/>
  <path class="fil1" d="M1269.1 941.173l-490.193 0c-16.9654,0 -30.7205,-13.7551 -30.7205,-30.7205l0 -113.123c0,-16.9654 13.7551,-30.7205 30.7205,-30.7205l490.193 0c16.9654,0 30.7205,13.7551 30.7205,30.7205l0 113.123c0,16.9654 -13.7551,30.7205 -30.7205,30.7205z"/>
  <path class="fil2" d="M579.763 879.731l888.473 0c28.0158,0 48.789,12.0177 64.7292,30.5551 13.3028,15.4713 22.2685,35.0823 29.1189,55.1339l226.244 662.233c2.50512,7.33465 3.67205,14.5725 3.67205,21.6213 0,19.2614 -8.32205,36.691 -21.4677,50.6918 -11.4154,12.1583 -26.7969,21.7795 -43.1599,27.3697 -10.7043,3.6567 -21.9343,5.68583 -32.8937,5.68583l-1340.96 0c-10.9595,0 -22.1894,-2.02914 -32.8937,-5.68583 -16.363,-5.59016 -31.7469,-15.2114 -43.1599,-27.3709 -13.1445,-14.002 -21.4677,-31.4315 -21.4677,-50.6918 0,-7.04882 1.16693,-14.2854 3.67205,-21.6201l226.244 -662.233c6.8504,-20.048 15.8162,-39.6591 29.1177,-55.1304 15.9402,-18.5386 36.7122,-30.5587 64.7304,-30.5587z"/>
  <path class="fil1" d="M959.017 1548.17l78.065 0 -105.698 -268.048 105.698 -215.543 -75.9934 0 -99.4796 210.708 0 -210.708 -75.9934 0 0 483.591 75.9934 0 0 -148.532 23.4874 -44.2134 73.9205 192.745zm221.76 -200.345l34.5425 0 0 89.119c0,11.3988 -1.61221,20.6103 -4.83544,27.5185 -3.22441,6.90945 -7.71497,11.8595 -13.5874,14.9681 -5.87245,3.10866 -12.8953,4.6063 -20.9551,4.49055 -8.05985,0.115748 -15.0827,-1.38189 -20.9551,-4.49055 -5.87363,-3.10866 -10.363,-8.05867 -13.5886,-14.9681 -3.22205,-6.90827 -4.83426,-16.1197 -4.83426,-27.5185l0 -261.138c0.114567,-17.1555 3.68504,-29.361 10.5921,-36.8457 7.0252,-7.36772 16.5803,-11.0528 28.7858,-10.8224 12.2043,-0.230315 21.7618,3.45473 28.7847,10.8224 6.90827,7.48465 10.4787,19.6902 10.5933,36.8457l0 51.8138 71.8477 0 0 -46.9784c0,-25.9063 -4.26024,-47.8973 -12.7807,-65.9764 -8.5193,-18.0756 -21.1866,-31.7776 -37.9973,-41.3339 -16.8106,-9.44056 -37.65,-14.1626 -62.5205,-14.2772 -24.8705,0.114567 -45.7099,4.83662 -62.5205,14.2772 -16.8106,9.55631 -29.4768,23.2583 -37.9961,41.3339 -8.52166,18.0791 -12.7819,40.0701 -12.7819,65.9764l0 251.468c0,25.9063 4.26024,47.7827 12.7819,65.8595 8.5193,18.0768 21.1854,31.8933 37.9961,41.4508 16.8106,9.44056 37.65,14.1638 62.5205,14.2772 24.8705,-0.113386 45.7099,-4.83662 62.5205,-14.2772 16.8106,-9.55749 29.478,-23.374 37.9973,-41.4508 8.52048,-18.0768 12.7807,-39.9532 12.7807,-65.8595l0 -153.367 -106.39 0 0 69.0839z"/>
 </g>
 <rect class="fil3" width="2048" height="2048"/>
</svg>
